<svg xmlns="http://www.w3.org/2000/svg" viewBox="0 0 56 56" width="56" height="56">
  <defs>
    <linearGradient id="fe-grad" x1="0" y1="1" x2="1" y2="0">
      <stop offset="0" stop-color="#4b3fe4"/>
      <stop offset="0.5" stop-color="#7c3aed"/>
      <stop offset="1" stop-color="#f97316"/>
    </linearGradient>
  </defs>
  <rect x="2" y="2" width="52" height="52" rx="14" fill="url(#fe-grad)"/>
  <path d="M28 9 C 31.5 20, 41 24.5, 38 36 C 36 43.5, 31.5 47.5 28 47.5 C 24.5 47.5, 18 43.5, 17.5 35 C 17 28, 22 24.5, 22 24.5 C 21 31, 26 33, 24 27 C 21.5 18.5, 28 16, 28 9 Z" fill="#ffffff"/>
  <path d="M28 26 C 30.5 31.5, 34 34, 31.5 39.5 C 30 43, 28.5 45, 28 45 C 26.5 44.5, 24 42.5, 24.5 38.5 C 25 35, 28 34.5, 28 34.5 C 27.5 38, 29.5 38, 28 33.5 C 27 30, 28 28.5 28 26 Z" fill="#fbbf24"/>
</svg>
